<mxfile host="app.diagrams.net" modified="2024-04-03T22:35:58.647Z" agent="Mozilla/5.0 (Windows NT 10.0; Win64; x64) AppleWebKit/537.36 (KHTML, like Gecko) Chrome/123.0.0.0 Safari/537.36" etag="ifSRtsOyIN5eHxTdk2IY" version="24.2.2" type="device">
  <diagram name="Page-1" id="wAHSgOjaUn7dHOg6NG2q">
    <mxGraphModel dx="2924" dy="1144" grid="1" gridSize="19" guides="1" tooltips="1" connect="1" arrows="1" fold="1" page="1" pageScale="1" pageWidth="850" pageHeight="1100" math="0" shadow="0">
      <root>
        <mxCell id="0" />
        <mxCell id="1" parent="0" />
        <mxCell id="INFdNarzXYYsd9w-_OI2-24" style="edgeStyle=orthogonalEdgeStyle;rounded=0;orthogonalLoop=1;jettySize=auto;html=1;entryX=0.5;entryY=0;entryDx=0;entryDy=0;" parent="1" source="INFdNarzXYYsd9w-_OI2-1" target="INFdNarzXYYsd9w-_OI2-8" edge="1">
          <mxGeometry relative="1" as="geometry" />
        </mxCell>
        <mxCell id="INFdNarzXYYsd9w-_OI2-1" value="Start" style="rounded=1;whiteSpace=wrap;html=1;" parent="1" vertex="1">
          <mxGeometry x="317" y="76" width="120" height="76" as="geometry" />
        </mxCell>
        <mxCell id="INFdNarzXYYsd9w-_OI2-10" value="" style="edgeStyle=orthogonalEdgeStyle;rounded=0;orthogonalLoop=1;jettySize=auto;html=1;" parent="1" source="INFdNarzXYYsd9w-_OI2-8" target="INFdNarzXYYsd9w-_OI2-9" edge="1">
          <mxGeometry relative="1" as="geometry">
            <Array as="points">
              <mxPoint x="380" y="342" />
              <mxPoint x="380" y="342" />
            </Array>
          </mxGeometry>
        </mxCell>
        <mxCell id="INFdNarzXYYsd9w-_OI2-8" value="Main Menu:&lt;div&gt;1. Single Player&lt;br&gt;2. Multiplayer&lt;/div&gt;&lt;div&gt;3. High Scores&lt;/div&gt;&lt;div&gt;4. Rules&lt;/div&gt;&lt;div&gt;5. Quit game&lt;/div&gt;" style="shape=parallelogram;perimeter=parallelogramPerimeter;whiteSpace=wrap;html=1;fixedSize=1;" parent="1" vertex="1">
          <mxGeometry x="262" y="220" width="230" height="103" as="geometry" />
        </mxCell>
        <mxCell id="INFdNarzXYYsd9w-_OI2-9" value="Main menu&lt;div&gt;selection&lt;/div&gt;" style="rhombus;whiteSpace=wrap;html=1;" parent="1" vertex="1">
          <mxGeometry x="322" y="399" width="115" height="114" as="geometry" />
        </mxCell>
        <mxCell id="INFdNarzXYYsd9w-_OI2-13" value="Print top 10 scores saved in High Score list" style="shape=parallelogram;perimeter=parallelogramPerimeter;whiteSpace=wrap;html=1;fixedSize=1;" parent="1" vertex="1">
          <mxGeometry x="456" y="627" width="260" height="70" as="geometry" />
        </mxCell>
        <mxCell id="INFdNarzXYYsd9w-_OI2-18" style="edgeStyle=orthogonalEdgeStyle;rounded=0;orthogonalLoop=1;jettySize=auto;html=1;" parent="1" source="INFdNarzXYYsd9w-_OI2-15" target="INFdNarzXYYsd9w-_OI2-19" edge="1">
          <mxGeometry relative="1" as="geometry">
            <mxPoint x="165" y="500" as="targetPoint" />
          </mxGeometry>
        </mxCell>
        <mxCell id="INFdNarzXYYsd9w-_OI2-15" value="Player 1 enters name&lt;div&gt;Player 2 enters name&lt;/div&gt;" style="shape=parallelogram;perimeter=parallelogramPerimeter;whiteSpace=wrap;html=1;fixedSize=1;" parent="1" vertex="1">
          <mxGeometry y="627" width="190" height="70" as="geometry" />
        </mxCell>
        <mxCell id="1wbdOMbZGXfBvarvkPJk-14" style="edgeStyle=orthogonalEdgeStyle;rounded=0;orthogonalLoop=1;jettySize=auto;html=1;entryX=0.5;entryY=0;entryDx=0;entryDy=0;" parent="1" source="INFdNarzXYYsd9w-_OI2-19" target="1wbdOMbZGXfBvarvkPJk-13" edge="1">
          <mxGeometry relative="1" as="geometry" />
        </mxCell>
        <mxCell id="INFdNarzXYYsd9w-_OI2-19" value="User names stored&lt;div&gt;Multiplayer flag: true&amp;nbsp;&lt;/div&gt;" style="rounded=0;whiteSpace=wrap;html=1;" parent="1" vertex="1">
          <mxGeometry x="17.5" y="760" width="155" height="60" as="geometry" />
        </mxCell>
        <mxCell id="INFdNarzXYYsd9w-_OI2-23" value="" style="endArrow=classic;html=1;rounded=0;" parent="1" edge="1">
          <mxGeometry width="50" height="50" relative="1" as="geometry">
            <mxPoint x="585.76" y="456" as="sourcePoint" />
            <mxPoint x="585.76" y="627" as="targetPoint" />
            <Array as="points">
              <mxPoint x="585.76" y="532" />
            </Array>
          </mxGeometry>
        </mxCell>
        <mxCell id="INFdNarzXYYsd9w-_OI2-28" value="Option: 3" style="text;html=1;align=center;verticalAlign=middle;whiteSpace=wrap;rounded=0;" parent="1" vertex="1">
          <mxGeometry x="513" y="520" width="60" height="30" as="geometry" />
        </mxCell>
        <mxCell id="INFdNarzXYYsd9w-_OI2-29" value="" style="endArrow=classic;html=1;rounded=0;" parent="1" edge="1">
          <mxGeometry width="50" height="50" relative="1" as="geometry">
            <mxPoint x="850" y="456" as="sourcePoint" />
            <mxPoint x="850" y="627" as="targetPoint" />
          </mxGeometry>
        </mxCell>
        <mxCell id="INFdNarzXYYsd9w-_OI2-30" value="Print rules" style="shape=parallelogram;perimeter=parallelogramPerimeter;whiteSpace=wrap;html=1;fixedSize=1;" parent="1" vertex="1">
          <mxGeometry x="779" y="627" width="152" height="60" as="geometry" />
        </mxCell>
        <mxCell id="INFdNarzXYYsd9w-_OI2-33" value="Option: 4" style="text;html=1;align=center;verticalAlign=middle;whiteSpace=wrap;rounded=0;" parent="1" vertex="1">
          <mxGeometry x="779" y="520" width="60" height="30" as="geometry" />
        </mxCell>
        <mxCell id="INFdNarzXYYsd9w-_OI2-34" value="Option: 5" style="text;html=1;align=center;verticalAlign=middle;whiteSpace=wrap;rounded=0;" parent="1" vertex="1">
          <mxGeometry x="988" y="520" width="60" height="30" as="geometry" />
        </mxCell>
        <mxCell id="INFdNarzXYYsd9w-_OI2-37" value="" style="endArrow=none;html=1;rounded=0;entryX=0.5;entryY=1;entryDx=0;entryDy=0;" parent="1" target="INFdNarzXYYsd9w-_OI2-30" edge="1">
          <mxGeometry width="50" height="50" relative="1" as="geometry">
            <mxPoint x="855" y="817" as="sourcePoint" />
            <mxPoint x="677" y="513" as="targetPoint" />
          </mxGeometry>
        </mxCell>
        <mxCell id="INFdNarzXYYsd9w-_OI2-38" value="" style="endArrow=none;html=1;rounded=0;" parent="1" edge="1">
          <mxGeometry width="50" height="50" relative="1" as="geometry">
            <mxPoint x="855" y="817" as="sourcePoint" />
            <mxPoint x="1178" y="817" as="targetPoint" />
          </mxGeometry>
        </mxCell>
        <mxCell id="INFdNarzXYYsd9w-_OI2-39" value="" style="endArrow=none;html=1;rounded=0;" parent="1" edge="1">
          <mxGeometry width="50" height="50" relative="1" as="geometry">
            <mxPoint x="1178" y="304" as="sourcePoint" />
            <mxPoint x="1178" y="817" as="targetPoint" />
          </mxGeometry>
        </mxCell>
        <mxCell id="INFdNarzXYYsd9w-_OI2-40" value="" style="endArrow=classic;html=1;rounded=0;entryX=0.954;entryY=0.81;entryDx=0;entryDy=0;entryPerimeter=0;" parent="1" target="INFdNarzXYYsd9w-_OI2-8" edge="1">
          <mxGeometry width="50" height="50" relative="1" as="geometry">
            <mxPoint x="1178" y="304" as="sourcePoint" />
            <mxPoint x="722" y="437" as="targetPoint" />
          </mxGeometry>
        </mxCell>
        <mxCell id="INFdNarzXYYsd9w-_OI2-41" value="" style="endArrow=none;html=1;rounded=0;exitX=0.514;exitY=0.992;exitDx=0;exitDy=0;exitPerimeter=0;" parent="1" source="INFdNarzXYYsd9w-_OI2-13" edge="1">
          <mxGeometry width="50" height="50" relative="1" as="geometry">
            <mxPoint x="589" y="703" as="sourcePoint" />
            <mxPoint x="589" y="836" as="targetPoint" />
          </mxGeometry>
        </mxCell>
        <mxCell id="INFdNarzXYYsd9w-_OI2-42" value="" style="endArrow=none;html=1;rounded=0;" parent="1" edge="1">
          <mxGeometry width="50" height="50" relative="1" as="geometry">
            <mxPoint x="589" y="836" as="sourcePoint" />
            <mxPoint x="1216" y="836" as="targetPoint" />
          </mxGeometry>
        </mxCell>
        <mxCell id="INFdNarzXYYsd9w-_OI2-43" value="" style="endArrow=none;html=1;rounded=0;" parent="1" edge="1">
          <mxGeometry width="50" height="50" relative="1" as="geometry">
            <mxPoint x="1216" y="266" as="sourcePoint" />
            <mxPoint x="1216" y="836" as="targetPoint" />
          </mxGeometry>
        </mxCell>
        <mxCell id="INFdNarzXYYsd9w-_OI2-44" value="" style="endArrow=classic;html=1;rounded=0;entryX=0.97;entryY=0.425;entryDx=0;entryDy=0;entryPerimeter=0;" parent="1" target="INFdNarzXYYsd9w-_OI2-8" edge="1">
          <mxGeometry width="50" height="50" relative="1" as="geometry">
            <mxPoint x="1216" y="266" as="sourcePoint" />
            <mxPoint x="677" y="513" as="targetPoint" />
          </mxGeometry>
        </mxCell>
        <mxCell id="INFdNarzXYYsd9w-_OI2-46" value="" style="endArrow=none;html=1;rounded=0;exitX=1;exitY=0.5;exitDx=0;exitDy=0;" parent="1" source="INFdNarzXYYsd9w-_OI2-9" edge="1">
          <mxGeometry width="50" height="50" relative="1" as="geometry">
            <mxPoint x="627" y="563" as="sourcePoint" />
            <mxPoint x="1064" y="456" as="targetPoint" />
          </mxGeometry>
        </mxCell>
        <mxCell id="INFdNarzXYYsd9w-_OI2-47" value="" style="endArrow=classic;html=1;rounded=0;" parent="1" edge="1">
          <mxGeometry width="50" height="50" relative="1" as="geometry">
            <mxPoint x="1064" y="456" as="sourcePoint" />
            <mxPoint x="1064" y="627" as="targetPoint" />
          </mxGeometry>
        </mxCell>
        <mxCell id="1wbdOMbZGXfBvarvkPJk-4" value="" style="endArrow=none;html=1;rounded=0;entryX=0;entryY=0.5;entryDx=0;entryDy=0;" parent="1" target="INFdNarzXYYsd9w-_OI2-9" edge="1">
          <mxGeometry width="50" height="50" relative="1" as="geometry">
            <mxPoint x="-152" y="456" as="sourcePoint" />
            <mxPoint x="316" y="551" as="targetPoint" />
          </mxGeometry>
        </mxCell>
        <mxCell id="1wbdOMbZGXfBvarvkPJk-5" value="" style="endArrow=classic;html=1;rounded=0;" parent="1" edge="1">
          <mxGeometry width="50" height="50" relative="1" as="geometry">
            <mxPoint x="-152" y="456" as="sourcePoint" />
            <mxPoint x="-152" y="627" as="targetPoint" />
          </mxGeometry>
        </mxCell>
        <mxCell id="1wbdOMbZGXfBvarvkPJk-6" value="" style="endArrow=classic;html=1;rounded=0;" parent="1" edge="1">
          <mxGeometry width="50" height="50" relative="1" as="geometry">
            <mxPoint x="95" y="456" as="sourcePoint" />
            <mxPoint x="95" y="627" as="targetPoint" />
          </mxGeometry>
        </mxCell>
        <mxCell id="1wbdOMbZGXfBvarvkPJk-10" style="edgeStyle=orthogonalEdgeStyle;rounded=0;orthogonalLoop=1;jettySize=auto;html=1;entryX=0.5;entryY=0;entryDx=0;entryDy=0;" parent="1" source="1wbdOMbZGXfBvarvkPJk-7" target="1wbdOMbZGXfBvarvkPJk-9" edge="1">
          <mxGeometry relative="1" as="geometry" />
        </mxCell>
        <mxCell id="1wbdOMbZGXfBvarvkPJk-7" value="Player 1 enters name" style="shape=parallelogram;perimeter=parallelogramPerimeter;whiteSpace=wrap;html=1;fixedSize=1;" parent="1" vertex="1">
          <mxGeometry x="-228" y="627" width="152" height="57" as="geometry" />
        </mxCell>
        <mxCell id="1wbdOMbZGXfBvarvkPJk-12" style="edgeStyle=orthogonalEdgeStyle;rounded=0;orthogonalLoop=1;jettySize=auto;html=1;entryX=0.5;entryY=0;entryDx=0;entryDy=0;" parent="1" source="1wbdOMbZGXfBvarvkPJk-9" target="1wbdOMbZGXfBvarvkPJk-11" edge="1">
          <mxGeometry relative="1" as="geometry" />
        </mxCell>
        <mxCell id="1wbdOMbZGXfBvarvkPJk-9" value="User name stored&lt;div&gt;Multiplayer flag: false&lt;/div&gt;" style="rounded=0;whiteSpace=wrap;html=1;" parent="1" vertex="1">
          <mxGeometry x="-212" y="760" width="120" height="60" as="geometry" />
        </mxCell>
        <mxCell id="1wbdOMbZGXfBvarvkPJk-11" value="Random word is grabbed from wordlist" style="rounded=0;whiteSpace=wrap;html=1;" parent="1" vertex="1">
          <mxGeometry x="-212" y="874" width="120" height="60" as="geometry" />
        </mxCell>
        <mxCell id="1wbdOMbZGXfBvarvkPJk-13" value="User 2 enters word for user&lt;div&gt;1 to guess&lt;/div&gt;" style="shape=parallelogram;perimeter=parallelogramPerimeter;whiteSpace=wrap;html=1;fixedSize=1;" parent="1" vertex="1">
          <mxGeometry x="8" y="874" width="174" height="57" as="geometry" />
        </mxCell>
        <mxCell id="1wbdOMbZGXfBvarvkPJk-15" value="" style="endArrow=none;html=1;rounded=0;entryX=0.5;entryY=1;entryDx=0;entryDy=0;" parent="1" target="1wbdOMbZGXfBvarvkPJk-11" edge="1">
          <mxGeometry width="50" height="50" relative="1" as="geometry">
            <mxPoint x="-152" y="1026" as="sourcePoint" />
            <mxPoint x="316" y="988" as="targetPoint" />
          </mxGeometry>
        </mxCell>
        <mxCell id="1wbdOMbZGXfBvarvkPJk-16" value="" style="endArrow=none;html=1;rounded=0;entryX=0.5;entryY=1;entryDx=0;entryDy=0;" parent="1" target="1wbdOMbZGXfBvarvkPJk-13" edge="1">
          <mxGeometry width="50" height="50" relative="1" as="geometry">
            <mxPoint x="95" y="1026" as="sourcePoint" />
            <mxPoint x="316" y="988" as="targetPoint" />
          </mxGeometry>
        </mxCell>
        <mxCell id="1wbdOMbZGXfBvarvkPJk-17" value="" style="endArrow=none;html=1;rounded=0;" parent="1" edge="1">
          <mxGeometry width="50" height="50" relative="1" as="geometry">
            <mxPoint x="95" y="1026" as="sourcePoint" />
            <mxPoint x="-152" y="1026" as="targetPoint" />
          </mxGeometry>
        </mxCell>
        <mxCell id="1wbdOMbZGXfBvarvkPJk-24" style="edgeStyle=orthogonalEdgeStyle;rounded=0;orthogonalLoop=1;jettySize=auto;html=1;" parent="1" source="1wbdOMbZGXfBvarvkPJk-19" target="1wbdOMbZGXfBvarvkPJk-25" edge="1">
          <mxGeometry relative="1" as="geometry">
            <mxPoint x="-19" y="1406" as="targetPoint" />
          </mxGeometry>
        </mxCell>
        <mxCell id="1wbdOMbZGXfBvarvkPJk-19" value="hangManState printed&lt;br&gt;&lt;div&gt;&lt;br&gt;&lt;div&gt;wordState printed&lt;/div&gt;&lt;/div&gt;&lt;div&gt;&lt;br&gt;&lt;/div&gt;&lt;div&gt;Prompt to enter a letter&lt;/div&gt;" style="shape=parallelogram;perimeter=parallelogramPerimeter;whiteSpace=wrap;html=1;fixedSize=1;" parent="1" vertex="1">
          <mxGeometry x="-115.5" y="1406" width="193" height="106" as="geometry" />
        </mxCell>
        <mxCell id="1wbdOMbZGXfBvarvkPJk-20" value="" style="endArrow=classic;html=1;rounded=0;" parent="1" target="1wbdOMbZGXfBvarvkPJk-21" edge="1">
          <mxGeometry width="50" height="50" relative="1" as="geometry">
            <mxPoint x="-19" y="1026" as="sourcePoint" />
            <mxPoint x="-19" y="1140" as="targetPoint" />
          </mxGeometry>
        </mxCell>
        <mxCell id="1wbdOMbZGXfBvarvkPJk-29" style="edgeStyle=orthogonalEdgeStyle;rounded=0;orthogonalLoop=1;jettySize=auto;html=1;entryX=0.5;entryY=0;entryDx=0;entryDy=0;" parent="1" source="1wbdOMbZGXfBvarvkPJk-21" target="1wbdOMbZGXfBvarvkPJk-19" edge="1">
          <mxGeometry relative="1" as="geometry" />
        </mxCell>
        <mxCell id="1wbdOMbZGXfBvarvkPJk-21" value="Word variable declared&lt;div&gt;&lt;br&gt;&lt;div&gt;List of letters guessed made&lt;/div&gt;&lt;div&gt;&lt;br&gt;&lt;/div&gt;&lt;div&gt;Success count = 0&lt;/div&gt;&lt;div&gt;Fail count = 0&lt;/div&gt;&lt;/div&gt;" style="rounded=0;whiteSpace=wrap;html=1;" parent="1" vertex="1">
          <mxGeometry x="-91" y="1110" width="144" height="106" as="geometry" />
        </mxCell>
        <mxCell id="1wbdOMbZGXfBvarvkPJk-31" style="edgeStyle=orthogonalEdgeStyle;rounded=0;orthogonalLoop=1;jettySize=auto;html=1;" parent="1" source="1wbdOMbZGXfBvarvkPJk-25" target="1wbdOMbZGXfBvarvkPJk-32" edge="1">
          <mxGeometry relative="1" as="geometry">
            <mxPoint x="-190" y="1601.5" as="targetPoint" />
          </mxGeometry>
        </mxCell>
        <mxCell id="1wbdOMbZGXfBvarvkPJk-25" value="Does word contain letter" style="rhombus;whiteSpace=wrap;html=1;" parent="1" vertex="1">
          <mxGeometry x="-67.5" y="1553" width="97" height="97" as="geometry" />
        </mxCell>
        <mxCell id="1wbdOMbZGXfBvarvkPJk-30" value="wordState method&lt;div&gt;&lt;br&gt;&lt;div&gt;hangManState method&lt;/div&gt;&lt;/div&gt;" style="rounded=0;whiteSpace=wrap;html=1;" parent="1" vertex="1">
          <mxGeometry x="-79" y="1273" width="120" height="60" as="geometry" />
        </mxCell>
        <mxCell id="1wbdOMbZGXfBvarvkPJk-41" style="edgeStyle=orthogonalEdgeStyle;rounded=0;orthogonalLoop=1;jettySize=auto;html=1;" parent="1" source="1wbdOMbZGXfBvarvkPJk-32" target="1wbdOMbZGXfBvarvkPJk-40" edge="1">
          <mxGeometry relative="1" as="geometry" />
        </mxCell>
        <mxCell id="1wbdOMbZGXfBvarvkPJk-32" value="&lt;div&gt;Letters guessed list gets updated&lt;/div&gt;&lt;div&gt;&lt;br&gt;&lt;/div&gt;hangManState goes up 1&lt;div&gt;&lt;br&gt;&lt;/div&gt;&lt;div&gt;fail count goes up 1&lt;/div&gt;" style="rounded=0;whiteSpace=wrap;html=1;" parent="1" vertex="1">
          <mxGeometry x="-249" y="1520" width="117" height="111.5" as="geometry" />
        </mxCell>
        <mxCell id="1wbdOMbZGXfBvarvkPJk-34" value="Print try again" style="shape=parallelogram;perimeter=parallelogramPerimeter;whiteSpace=wrap;html=1;fixedSize=1;" parent="1" vertex="1">
          <mxGeometry x="-418" y="1669" width="120" height="60" as="geometry" />
        </mxCell>
        <mxCell id="1wbdOMbZGXfBvarvkPJk-42" style="edgeStyle=orthogonalEdgeStyle;rounded=0;orthogonalLoop=1;jettySize=auto;html=1;entryX=1;entryY=0.5;entryDx=0;entryDy=0;" parent="1" source="1wbdOMbZGXfBvarvkPJk-40" target="1wbdOMbZGXfBvarvkPJk-34" edge="1">
          <mxGeometry relative="1" as="geometry" />
        </mxCell>
        <mxCell id="1wbdOMbZGXfBvarvkPJk-40" value="is fail count &amp;gt;= to word length" style="rhombus;whiteSpace=wrap;html=1;" parent="1" vertex="1">
          <mxGeometry x="-248" y="1650" width="116" height="98" as="geometry" />
        </mxCell>
        <mxCell id="1wbdOMbZGXfBvarvkPJk-43" value="No" style="text;html=1;align=center;verticalAlign=middle;whiteSpace=wrap;rounded=0;" parent="1" vertex="1">
          <mxGeometry x="-115.5" y="1560.75" width="60" height="30" as="geometry" />
        </mxCell>
        <mxCell id="1wbdOMbZGXfBvarvkPJk-44" value="No" style="text;html=1;align=center;verticalAlign=middle;whiteSpace=wrap;rounded=0;" parent="1" vertex="1">
          <mxGeometry x="-308" y="1669" width="60" height="30" as="geometry" />
        </mxCell>
        <mxCell id="1wbdOMbZGXfBvarvkPJk-45" value="" style="endArrow=none;html=1;rounded=0;exitX=0.5;exitY=0;exitDx=0;exitDy=0;" parent="1" edge="1">
          <mxGeometry width="50" height="50" relative="1" as="geometry">
            <mxPoint x="-342" y="1669" as="sourcePoint" />
            <mxPoint x="-341.71" y="1444" as="targetPoint" />
            <Array as="points">
              <mxPoint x="-342" y="1558" />
            </Array>
          </mxGeometry>
        </mxCell>
        <mxCell id="1wbdOMbZGXfBvarvkPJk-47" value="" style="endArrow=classic;html=1;rounded=0;entryX=0.066;entryY=0.362;entryDx=0;entryDy=0;entryPerimeter=0;" parent="1" target="1wbdOMbZGXfBvarvkPJk-19" edge="1">
          <mxGeometry width="50" height="50" relative="1" as="geometry">
            <mxPoint x="-342" y="1444" as="sourcePoint" />
            <mxPoint x="-102" y="1501" as="targetPoint" />
          </mxGeometry>
        </mxCell>
        <mxCell id="1wbdOMbZGXfBvarvkPJk-48" value="" style="endArrow=classic;html=1;rounded=0;exitX=1;exitY=0.5;exitDx=0;exitDy=0;" parent="1" source="1wbdOMbZGXfBvarvkPJk-40" edge="1">
          <mxGeometry width="50" height="50" relative="1" as="geometry">
            <mxPoint x="133" y="1646" as="sourcePoint" />
            <mxPoint x="-67.5" y="1699" as="targetPoint" />
          </mxGeometry>
        </mxCell>
        <mxCell id="1wbdOMbZGXfBvarvkPJk-50" value="Yes" style="text;html=1;align=center;verticalAlign=middle;whiteSpace=wrap;rounded=0;" parent="1" vertex="1">
          <mxGeometry x="-136" y="1669" width="60" height="30" as="geometry" />
        </mxCell>
        <mxCell id="1wbdOMbZGXfBvarvkPJk-61" style="edgeStyle=orthogonalEdgeStyle;rounded=0;orthogonalLoop=1;jettySize=auto;html=1;" parent="1" source="1wbdOMbZGXfBvarvkPJk-51" target="1wbdOMbZGXfBvarvkPJk-62" edge="1">
          <mxGeometry relative="1" as="geometry">
            <mxPoint x="114" y="1699" as="targetPoint" />
          </mxGeometry>
        </mxCell>
        <mxCell id="1wbdOMbZGXfBvarvkPJk-51" value="Print you lose&lt;div&gt;Print word&lt;/div&gt;" style="shape=parallelogram;perimeter=parallelogramPerimeter;whiteSpace=wrap;html=1;fixedSize=1;" parent="1" vertex="1">
          <mxGeometry x="-79" y="1669" width="120" height="60" as="geometry" />
        </mxCell>
        <mxCell id="1wbdOMbZGXfBvarvkPJk-52" value="" style="endArrow=classic;html=1;rounded=0;exitX=1;exitY=0.5;exitDx=0;exitDy=0;" parent="1" source="1wbdOMbZGXfBvarvkPJk-25" target="1wbdOMbZGXfBvarvkPJk-54" edge="1">
          <mxGeometry width="50" height="50" relative="1" as="geometry">
            <mxPoint x="171" y="1589" as="sourcePoint" />
            <mxPoint x="114" y="1602" as="targetPoint" />
          </mxGeometry>
        </mxCell>
        <mxCell id="1wbdOMbZGXfBvarvkPJk-53" value="Yes" style="text;html=1;align=center;verticalAlign=middle;whiteSpace=wrap;rounded=0;" parent="1" vertex="1">
          <mxGeometry x="29.5" y="1571.5" width="60" height="30" as="geometry" />
        </mxCell>
        <mxCell id="1wbdOMbZGXfBvarvkPJk-55" style="edgeStyle=orthogonalEdgeStyle;rounded=0;orthogonalLoop=1;jettySize=auto;html=1;" parent="1" source="1wbdOMbZGXfBvarvkPJk-54" target="1wbdOMbZGXfBvarvkPJk-56" edge="1">
          <mxGeometry relative="1" as="geometry">
            <mxPoint x="247" y="1602" as="targetPoint" />
          </mxGeometry>
        </mxCell>
        <mxCell id="1wbdOMbZGXfBvarvkPJk-54" value="&lt;div&gt;Letters guessed list gets updated&lt;/div&gt;&lt;div&gt;&lt;br&gt;&lt;/div&gt;Success count goes up = to # of correct letters" style="rounded=0;whiteSpace=wrap;html=1;" parent="1" vertex="1">
          <mxGeometry x="82" y="1551" width="120" height="99.25" as="geometry" />
        </mxCell>
        <mxCell id="1wbdOMbZGXfBvarvkPJk-60" style="edgeStyle=orthogonalEdgeStyle;rounded=0;orthogonalLoop=1;jettySize=auto;html=1;" parent="1" source="1wbdOMbZGXfBvarvkPJk-56" edge="1">
          <mxGeometry relative="1" as="geometry">
            <mxPoint x="475" y="1601.5" as="targetPoint" />
          </mxGeometry>
        </mxCell>
        <mxCell id="1wbdOMbZGXfBvarvkPJk-56" value="Is success count&lt;div&gt;&amp;nbsp;&amp;gt;= to word length&lt;/div&gt;" style="rhombus;whiteSpace=wrap;html=1;" parent="1" vertex="1">
          <mxGeometry x="247" y="1546.5" width="154" height="110" as="geometry" />
        </mxCell>
        <mxCell id="1wbdOMbZGXfBvarvkPJk-57" value="" style="endArrow=none;html=1;rounded=0;exitX=0.5;exitY=0;exitDx=0;exitDy=0;" parent="1" source="1wbdOMbZGXfBvarvkPJk-56" edge="1">
          <mxGeometry width="50" height="50" relative="1" as="geometry">
            <mxPoint x="152" y="1570" as="sourcePoint" />
            <mxPoint x="323" y="1444" as="targetPoint" />
          </mxGeometry>
        </mxCell>
        <mxCell id="1wbdOMbZGXfBvarvkPJk-58" value="" style="endArrow=classic;html=1;rounded=0;entryX=0.992;entryY=0.358;entryDx=0;entryDy=0;entryPerimeter=0;" parent="1" target="1wbdOMbZGXfBvarvkPJk-19" edge="1">
          <mxGeometry width="50" height="50" relative="1" as="geometry">
            <mxPoint x="323" y="1444" as="sourcePoint" />
            <mxPoint x="202" y="1520" as="targetPoint" />
          </mxGeometry>
        </mxCell>
        <mxCell id="1wbdOMbZGXfBvarvkPJk-59" value="No" style="text;html=1;align=center;verticalAlign=middle;whiteSpace=wrap;rounded=0;" parent="1" vertex="1">
          <mxGeometry x="317" y="1482" width="60" height="30" as="geometry" />
        </mxCell>
        <mxCell id="1wbdOMbZGXfBvarvkPJk-63" style="edgeStyle=orthogonalEdgeStyle;rounded=0;orthogonalLoop=1;jettySize=auto;html=1;" parent="1" source="1wbdOMbZGXfBvarvkPJk-62" target="1wbdOMbZGXfBvarvkPJk-64" edge="1">
          <mxGeometry relative="1" as="geometry">
            <mxPoint x="122" y="1824" as="targetPoint" />
          </mxGeometry>
        </mxCell>
        <mxCell id="1wbdOMbZGXfBvarvkPJk-62" value="Print do you want&lt;div&gt;to play again&lt;/div&gt;" style="shape=parallelogram;perimeter=parallelogramPerimeter;whiteSpace=wrap;html=1;fixedSize=1;" parent="1" vertex="1">
          <mxGeometry x="54" y="1669" width="136" height="60" as="geometry" />
        </mxCell>
        <mxCell id="1wbdOMbZGXfBvarvkPJk-65" style="edgeStyle=orthogonalEdgeStyle;rounded=0;orthogonalLoop=1;jettySize=auto;html=1;" parent="1" source="1wbdOMbZGXfBvarvkPJk-64" edge="1">
          <mxGeometry relative="1" as="geometry">
            <mxPoint x="209.5" y="1824" as="targetPoint" />
          </mxGeometry>
        </mxCell>
        <mxCell id="1wbdOMbZGXfBvarvkPJk-64" value="Yes or No" style="rhombus;whiteSpace=wrap;html=1;" parent="1" vertex="1">
          <mxGeometry x="82" y="1784" width="80" height="80" as="geometry" />
        </mxCell>
        <mxCell id="1wbdOMbZGXfBvarvkPJk-67" value="No" style="text;html=1;align=center;verticalAlign=middle;whiteSpace=wrap;rounded=0;" parent="1" vertex="1">
          <mxGeometry x="149.5" y="1784" width="60" height="30" as="geometry" />
        </mxCell>
        <mxCell id="1wbdOMbZGXfBvarvkPJk-69" value="Yes" style="text;html=1;align=center;verticalAlign=middle;whiteSpace=wrap;rounded=0;" parent="1" vertex="1">
          <mxGeometry x="17.5" y="1784" width="60" height="30" as="geometry" />
        </mxCell>
        <mxCell id="1wbdOMbZGXfBvarvkPJk-70" value="" style="endArrow=none;html=1;rounded=0;exitX=0;exitY=0.5;exitDx=0;exitDy=0;" parent="1" source="1wbdOMbZGXfBvarvkPJk-64" edge="1">
          <mxGeometry width="50" height="50" relative="1" as="geometry">
            <mxPoint x="19" y="1722" as="sourcePoint" />
            <mxPoint x="-456" y="1824" as="targetPoint" />
          </mxGeometry>
        </mxCell>
        <mxCell id="1wbdOMbZGXfBvarvkPJk-71" value="" style="endArrow=none;html=1;rounded=0;" parent="1" edge="1">
          <mxGeometry width="50" height="50" relative="1" as="geometry">
            <mxPoint x="-456" y="1824" as="sourcePoint" />
            <mxPoint x="-456" y="247" as="targetPoint" />
          </mxGeometry>
        </mxCell>
        <mxCell id="1wbdOMbZGXfBvarvkPJk-72" value="" style="endArrow=classic;html=1;rounded=0;entryX=0;entryY=0.25;entryDx=0;entryDy=0;" parent="1" target="INFdNarzXYYsd9w-_OI2-8" edge="1">
          <mxGeometry width="50" height="50" relative="1" as="geometry">
            <mxPoint x="-456" y="247" as="sourcePoint" />
            <mxPoint x="278" y="893" as="targetPoint" />
          </mxGeometry>
        </mxCell>
        <mxCell id="1wbdOMbZGXfBvarvkPJk-74" style="edgeStyle=orthogonalEdgeStyle;rounded=0;orthogonalLoop=1;jettySize=auto;html=1;" parent="1" source="1wbdOMbZGXfBvarvkPJk-73" target="1wbdOMbZGXfBvarvkPJk-75" edge="1">
          <mxGeometry relative="1" as="geometry">
            <mxPoint x="627" y="1601.5" as="targetPoint" />
          </mxGeometry>
        </mxCell>
        <mxCell id="1wbdOMbZGXfBvarvkPJk-73" value="Print you win" style="shape=parallelogram;perimeter=parallelogramPerimeter;whiteSpace=wrap;html=1;fixedSize=1;" parent="1" vertex="1">
          <mxGeometry x="456" y="1571.5" width="120" height="60" as="geometry" />
        </mxCell>
        <mxCell id="1wbdOMbZGXfBvarvkPJk-75" value="User&#39;s high score goes up 1" style="rounded=0;whiteSpace=wrap;html=1;" parent="1" vertex="1">
          <mxGeometry x="608" y="1571.5" width="120" height="60" as="geometry" />
        </mxCell>
        <mxCell id="1wbdOMbZGXfBvarvkPJk-76" value="" style="endArrow=none;html=1;rounded=0;exitX=0.5;exitY=1;exitDx=0;exitDy=0;" parent="1" edge="1">
          <mxGeometry width="50" height="50" relative="1" as="geometry">
            <mxPoint x="684" y="1631.5" as="sourcePoint" />
            <mxPoint x="684" y="1691" as="targetPoint" />
          </mxGeometry>
        </mxCell>
        <mxCell id="1wbdOMbZGXfBvarvkPJk-78" value="" style="endArrow=classic;html=1;rounded=0;entryX=0.968;entryY=0.331;entryDx=0;entryDy=0;entryPerimeter=0;" parent="1" target="1wbdOMbZGXfBvarvkPJk-62" edge="1">
          <mxGeometry width="50" height="50" relative="1" as="geometry">
            <mxPoint x="684" y="1691" as="sourcePoint" />
            <mxPoint x="658" y="1653" as="targetPoint" />
          </mxGeometry>
        </mxCell>
        <mxCell id="1wbdOMbZGXfBvarvkPJk-80" value="Yes" style="text;html=1;align=center;verticalAlign=middle;whiteSpace=wrap;rounded=0;" parent="1" vertex="1">
          <mxGeometry x="395" y="1560.75" width="60" height="30" as="geometry" />
        </mxCell>
        <mxCell id="1wbdOMbZGXfBvarvkPJk-81" value="Exit game" style="rounded=1;whiteSpace=wrap;html=1;" parent="1" vertex="1">
          <mxGeometry x="210" y="1794" width="120" height="60" as="geometry" />
        </mxCell>
        <mxCell id="1wbdOMbZGXfBvarvkPJk-82" value="Exit game" style="rounded=1;whiteSpace=wrap;html=1;" parent="1" vertex="1">
          <mxGeometry x="1007" y="627" width="120" height="60" as="geometry" />
        </mxCell>
      </root>
    </mxGraphModel>
  </diagram>
</mxfile>
